# xmcd
#
# Track frame offsets: 
#        150
#        20685
#        32787
#        47542
#        68881
#        87005
#        107128
#        119410
#        137069
#        160799
#        186642
#        205574
#
# Disc length: 3180 seconds
#
# Revision: 0
# Processed by: cddbd v1.5.2PL0 Copyright (c) Steve Scherf et al.
# Submitted via: ExactAudioCopy v0.99pb3
#
DISCID=a30c6a0c
DTITLE=R.L Burnside - BURNSIDE ON BURNSIDE
DYEAR=2001
DGENRE=Blues
TTITLE0=Shake 'Em On Down
TTITLE1=Skinny Woman
TTITLE2=Miss Maybelle
TTITLE3=Rollin' and Tumblin'
TTITLE4=Long Haired Doney
TTITLE5=Walkin' Blues
TTITLE6=He Ain't Your Daddy
TTITLE7=Bad Luck And Trouble
TTITLE8=Jumper On The Line
TTITLE9=Goin' Down South
TTITLE10=Alice Mae
TTITLE11=Snake Drive
EXTD=
EXTT0=
EXTT1=
EXTT2=
EXTT3=
EXTT4=
EXTT5=
EXTT6=
EXTT7=
EXTT8=
EXTT9=
EXTT10=
EXTT11=
PLAYORDER=
